<svg xmlns="http://www.w3.org/2000/svg" xmlns:svg="http://www.w3.org/2000/svg" id="svg8" width="615.173" height="600.02" version="1.1" viewBox="0 0 162.764 158.755"><metadata id="metadata5"/><g id="layer1" transform="translate(-7.0371427,-43.014012)"><rect style="fill:#ececec;fill-opacity:1;stroke:#000;stroke-width:.23316868;stroke-opacity:1" id="rect4667" width="162.531" height="158.522" x="7.154" y="43.131"/><g id="g4692" transform="translate(0.26775519,1.5875)"><g id="g4611" transform="rotate(3,94.138597,97.34216)"><g id="g4701"><g id="g3747" transform="matrix(0.07567181,-0.03528635,-0.03528635,-0.07567181,66.507215,243.71274)" style="fill:#4b00bc;fill-opacity:1"><path id="path3745" d="m 500,930 c -18.9,0 -39.9,1.5 -63.1,4.5 l -32.4,129.2 c -31.4,8.5 -61,20.8 -88.6,36.9 l -114.4,-68.5 c -33.6,25.7 -63.4,55.4 -89.4,89 l 68.5,114.4 c -16.1,27.9 -28.3,57.5 -36.5,89 l -129.6,32.4 c -3,23.2 -4.5,44.3 -4.5,63.1 0,18.9 1.5,39.9 4.5,63.1 l 129.6,32.4 c 8.2,31.2 20.4,60.7 36.5,88.6 l -68.5,114.4 c 26,33.6 55.8,63.4 89.4,89.4 l 114.4,-68.5 c 27.9,15.9 57.4,28 88.6,36.5 l 32.4,129.6 c 23.5,3 44.6,4.5 63.1,4.5 18.9,0 39.9,-1.5 63.1,-4.5 l 32.4,-129.6 c 31.4,-8.2 61.1,-20.4 89,-36.5 l 114.4,68.5 c 33.6,-26 63.3,-55.8 89,-89.4 l -68.5,-114.4 c 16.1,-27.9 28.4,-57.4 36.9,-88.6 l 129.6,-32.4 c 2.7,-23.5 4.1,-44.6 4.1,-63.1 0,-18.6 -1.4,-39.6 -4.1,-63.1 l -129.6,-32.4 c -8.5,-31.4 -20.8,-61.1 -36.9,-89 l 68.9,-114 c -26.2,-33.9 -56,-63.7 -89.4,-89.4 l -114.4,68.5 c -27.6,-16.1 -57.3,-28.4 -89,-36.9 L 563.1,934.5 C 539.9,931.5 518.9,930 500,930 Z m 0,318.6 c 23.2,0 45.4,4.5 66.6,13.5 21.2,9 39.4,21.2 54.7,36.5 15.3,15.3 27.5,33.6 36.5,54.7 9,21.2 13.5,43.4 13.5,66.6 0,23.2 -4.5,45.4 -13.5,66.6 -9,21.2 -21.2,39.4 -36.5,54.7 -15.3,15.3 -33.6,27.5 -54.7,36.5 -21.2,9 -43.4,13.5 -66.6,13.5 -30.9,0 -59.5,-7.7 -85.9,-23 -26.4,-15.3 -47.2,-36.2 -62.5,-62.5 -15.3,-26.4 -23,-55.1 -23,-86.1 0,-31 7.7,-59.7 23,-85.9 15.3,-26.2 36.2,-47 62.5,-62.3 26.4,-15.1 55,-22.8 85.9,-22.8 z" style="fill:#4b00bc;fill-opacity:1"/></g><circle id="path4603" cx="54.252" cy="118.615" r="21.782" style="fill:#ececec;fill-opacity:1;stroke-width:.22579624"/><circle id="path4590" cx="54.252" cy="118.615" r="18.976" style="fill:#000;fill-opacity:1;stroke-width:.26458332"/><ellipse id="path4588" cx="54.252" cy="118.615" rx="15.374" ry="15.502" style="fill:#ececec;fill-opacity:1;stroke-width:.25365013"/></g></g><g style="fill:#4b00bc;fill-opacity:1" id="g3749-7" transform="matrix(0,-0.08349461,0.08349461,0,80.024272,129.9627)"><g style="fill:#4b00bc;fill-opacity:1" id="g3747-5" transform="matrix(1,0,0,-1,0,1920)"><path style="fill:#4b00bc;fill-opacity:1" id="path3745-9" d="m 500,930 c -18.9,0 -39.9,1.5 -63.1,4.5 l -32.4,129.2 c -31.4,8.5 -61,20.8 -88.6,36.9 l -114.4,-68.5 c -33.6,25.7 -63.4,55.4 -89.4,89 l 68.5,114.4 c -16.1,27.9 -28.3,57.5 -36.5,89 l -129.6,32.4 c -3,23.2 -4.5,44.3 -4.5,63.1 0,18.9 1.5,39.9 4.5,63.1 l 129.6,32.4 c 8.2,31.2 20.4,60.7 36.5,88.6 l -68.5,114.4 c 26,33.6 55.8,63.4 89.4,89.4 l 114.4,-68.5 c 27.9,15.9 57.4,28 88.6,36.5 l 32.4,129.6 c 23.5,3 44.6,4.5 63.1,4.5 18.9,0 39.9,-1.5 63.1,-4.5 l 32.4,-129.6 c 31.4,-8.2 61.1,-20.4 89,-36.5 l 114.4,68.5 c 33.6,-26 63.3,-55.8 89,-89.4 l -68.5,-114.4 c 16.1,-27.9 28.4,-57.4 36.9,-88.6 l 129.6,-32.4 c 2.7,-23.5 4.1,-44.6 4.1,-63.1 0,-18.6 -1.4,-39.6 -4.1,-63.1 l -129.6,-32.4 c -8.5,-31.4 -20.8,-61.1 -36.9,-89 l 68.9,-114 c -26.2,-33.9 -56,-63.7 -89.4,-89.4 l -114.4,68.5 c -27.6,-16.1 -57.3,-28.4 -89,-36.9 L 563.1,934.5 C 539.9,931.5 518.9,930 500,930 Z m 0,318.6 c 23.2,0 45.4,4.5 66.6,13.5 21.2,9 39.4,21.2 54.7,36.5 15.3,15.3 27.5,33.6 36.5,54.7 9,21.2 13.5,43.4 13.5,66.6 0,23.2 -4.5,45.4 -13.5,66.6 -9,21.2 -21.2,39.4 -36.5,54.7 -15.3,15.3 -33.6,27.5 -54.7,36.5 -21.2,9 -43.4,13.5 -66.6,13.5 -30.9,0 -59.5,-7.7 -85.9,-23 -26.4,-15.3 -47.2,-36.2 -62.5,-62.5 -15.3,-26.4 -23,-55.1 -23,-86.1 0,-31 7.7,-59.7 23,-85.9 15.3,-26.2 36.2,-47 62.5,-62.3 26.4,-15.1 55,-22.8 85.9,-22.8 z"/></g></g><circle id="path4603-4" cx="-38.702" cy="145.297" r="21.782" style="fill:#ececec;fill-opacity:1;stroke-width:.22579624" transform="rotate(-69)"/><circle id="path4590-1" cx="-38.702" cy="145.297" r="18.976" style="fill:#000;fill-opacity:1;stroke-width:.26458332" transform="rotate(-69)"/><ellipse id="path4588-6" cx="-38.702" cy="145.297" rx="15.374" ry="15.502" style="fill:#ececec;fill-opacity:1;stroke-width:.25365013" transform="rotate(-69)"/></g><flowRoot id="flowRoot4659" transform="matrix(0.88201442,0,0,0.88201442,-53.307602,-397.26258)" xml:space="preserve" style="font-style:normal;font-variant:normal;font-weight:400;font-stretch:normal;font-size:40px;line-height:1.25;font-family:'Bauhaus 93';-inkscape-font-specification:'Bauhaus 93, ';letter-spacing:0;word-spacing:0;fill:#000;fill-opacity:1;stroke:none"><flowRegion id="flowRegion4661" style="font-style:normal;font-variant:normal;font-weight:400;font-stretch:normal;font-family:'Bauhaus 93';-inkscape-font-specification:'Bauhaus 93, '"><rect id="rect4663" width="484.873" height="176.777" x="96.975" y="633.606" style="font-style:normal;font-variant:normal;font-weight:400;font-stretch:normal;font-family:'Bauhaus 93';-inkscape-font-specification:'Bauhaus 93, '"/></flowRegion><flowPara id="flowPara4665">Robo4J</flowPara></flowRoot></g></svg>